<svg id="Layer_1" data-name="Layer 1" xmlns="http://www.w3.org/2000/svg" viewBox="0 0 25 24"><defs><style>.cls-1{fill:#f8981d;}</style></defs><title>star--full</title><path class="cls-1" d="M12,.37c.24-.49.64-.49.88,0L16,6.69a2.12,2.12,0,0,0,1.43,1l7,1c.54.08.67.46.27.84l-5,4.92a2.14,2.14,0,0,0-.55,1.69l1.19,7c.09.54-.23.77-.72.52l-6.24-3.28a2.11,2.11,0,0,0-1.77,0L5.35,23.67c-.49.25-.81,0-.71-.53L5.83,16.2a2.18,2.18,0,0,0-.55-1.69l-5-4.92C-.16,9.21,0,8.83.5,8.75l7-1a2.07,2.07,0,0,0,1.43-1Z"/></svg>