<svg id="Layer_1" data-name="Layer 1" xmlns="http://www.w3.org/2000/svg" viewBox="0 0 25 24"><defs><style>.cls-1{fill:#f8981d;}</style></defs><title>star--outline</title><path class="cls-1" d="M12.48,4l1.77,3.59a4.1,4.1,0,0,0,2.94,2.13l3.95.58-2.86,2.79a4.09,4.09,0,0,0-1.12,3.46l.67,3.94-3.54-1.86a4,4,0,0,0-3.63,0L7.12,20.48l.68-3.95a4.14,4.14,0,0,0-1.12-3.45L3.81,10.29l4-.58a4.14,4.14,0,0,0,2.94-2.13L12.48,4m0-4c-.16,0-.32.12-.45.37L8.91,6.69a2.09,2.09,0,0,1-1.43,1l-7,1c-.54.08-.66.46-.27.84l5.05,4.92a2.18,2.18,0,0,1,.55,1.69l-1.19,7c-.07.39.08.62.35.62a.76.76,0,0,0,.36-.1l6.24-3.28a2,2,0,0,1,.89-.2,1.9,1.9,0,0,1,.88.2l6.24,3.28a.82.82,0,0,0,.36.1c.28,0,.43-.23.36-.62L19.13,16.2a2.12,2.12,0,0,1,.55-1.69l5-4.92c.4-.38.27-.76-.27-.84l-7-1a2.12,2.12,0,0,1-1.43-1L12.92.37C12.8.12,12.64,0,12.48,0Z"/></svg>